<svg xmlns="http://www.w3.org/2000/svg" width="24" height="24" fill="none" viewBox="0 0 24 24" id="youtube-kids">
  <path fill="#FF0000" fill-rule="evenodd" d="M9.1789 9.01615C8.84608 8.95563 8.50524 9.06748 8.27298 9.31342C8.04072 9.55936 7.94854 9.90605 8.02798 10.2349L9.23598 15.2349C9.31945 15.5803 9.57999 15.8555 9.92037 15.9578C10.2607 16.06 10.6298 15.9739 10.8898 15.7316L15.1818 11.7316C15.4585 11.4737 15.566 11.0817 15.4596 10.7187C15.3532 10.3557 15.0511 10.0838 14.6789 10.0161L9.1789 9.01615ZM10.7782 13.1017L10.3329 11.2588L12.3602 11.6273L10.7782 13.1017Z" clip-rule="evenodd"></path>
  <path fill="#FF0000" fill-rule="evenodd" d="M15.8752 3.10724C18.5116 2.55476 21.1735 4.14852 21.7682 6.76438L23.1714 12.9273C23.325 13.6063 23.3252 14.3111 23.1718 14.9901C23.0184 15.6692 22.7154 16.3055 22.2848 16.8526L22.2831 16.8547C21.8473 17.4052 21.3005 17.858 20.6784 18.1835C20.0851 18.4939 19.4358 18.682 18.7691 18.737C18.7386 18.742 18.7078 18.7455 18.6766 18.7477L14.7766 19.0157C14.7589 19.0169 14.7412 19.0176 14.7236 19.0179C13.5557 19.1157 12.4067 19.3731 11.3087 19.7829L11.2991 19.7864L8.78773 20.6946C8.12486 20.934 7.41964 21.0337 6.71638 20.9875C6.01401 20.9414 5.32876 20.7506 4.70357 20.4273C4.08169 20.109 3.53642 19.6593 3.10553 19.1094C2.67411 18.5588 2.3677 17.9209 2.20758 17.24L2.20593 17.2328L0.829674 11.1817C0.689168 10.5606 0.677197 9.91732 0.794497 9.29143C0.911797 8.66553 1.15589 8.07025 1.51176 7.54218L1.51305 7.54028C2.2399 6.46707 3.35767 5.72075 4.62745 5.46077L4.62995 5.46026L15.8752 3.10724ZM16.2852 5.06476C17.9227 4.72147 19.4806 5.72368 19.8179 7.2077L21.2207 13.3688L21.221 13.37C21.3087 13.7583 21.3087 14.1612 21.221 14.5495C21.1333 14.9378 20.9601 15.3016 20.7141 15.6145C20.4525 15.9446 20.1245 16.2161 19.7513 16.4113C19.3776 16.6068 18.9671 16.7215 18.5462 16.748C18.5143 16.75 18.4828 16.7535 18.4518 16.7584L14.6733 17.0181C14.649 17.0183 14.6247 17.0193 14.6005 17.0213C13.2373 17.1314 11.8958 17.4296 10.6143 17.9073L8.10833 18.8135C7.70485 18.9592 7.27559 19.0199 6.84752 18.9918C6.41945 18.9637 6.00183 18.8473 5.62089 18.65L5.61615 18.6476C5.25174 18.4614 4.93224 18.198 4.67983 17.8759C4.42812 17.5546 4.24915 17.1826 4.15525 16.7854L2.78024 10.7398C2.70005 10.3849 2.69326 10.0174 2.76027 9.65984C2.82726 9.30242 2.96657 8.96246 3.16967 8.66083C3.60397 8.02011 4.27169 7.57471 5.03011 7.41983L16.2852 5.06476Z" clip-rule="evenodd"></path>
</svg>

